<svg width="40" height="36" viewBox="0 0 40 36" fill="none" xmlns="http://www.w3.org/2000/svg">
<path d="M35.144 4.85661C34.2417 3.95116 33.1696 3.23274 31.989 2.74254C30.8085 2.25234 29.5427 2 28.2645 2C26.9862 2 25.7205 2.25234 24.5399 2.74254C23.3594 3.23274 22.2872 3.95116 21.3849 4.85661L20 6.2595L18.6151 4.85661C17.7128 3.95116 16.6406 3.23274 15.4601 2.74254C14.2795 2.25234 13.0138 2 11.7355 2C10.4572 2 9.19154 2.25234 8.01099 2.74254C6.83044 3.23274 5.75827 3.95116 4.85596 4.85661C1.04297 8.6696 0.809158 15.1085 5.61137 20.0006L20 34.3893L34.3886 20.0006C39.1908 15.1085 38.957 8.6696 35.144 4.85661Z" stroke="#1F1F1F" stroke-width="3" stroke-linecap="round" stroke-linejoin="round"/>
<path d="M20 6.25949L14.3704 11.907C13.6587 12.6246 13.2593 13.5943 13.2593 14.6049C13.2593 15.6155 13.6587 16.5852 14.3704 17.3028V17.3028C15.0879 18.0145 16.0576 18.4138 17.0683 18.4138C18.0789 18.4138 19.0486 18.0145 19.7661 17.3028L23.8309 13.3279C24.8411 12.3284 26.2049 11.7678 27.6259 11.7678C29.047 11.7678 30.4107 12.3284 31.4209 13.3279L35.7375 17.6445" stroke="#1F1F1F" stroke-width="3" stroke-linecap="round" stroke-linejoin="round"/>
<path d="M30.7914 23.5978L27.1943 20.0006" stroke="#1F1F1F" stroke-width="3" stroke-linecap="round" stroke-linejoin="round"/>
<path d="M25.3957 28.9935L21.7985 25.3964" stroke="#1F1F1F" stroke-width="3" stroke-linecap="round" stroke-linejoin="round"/>
</svg>
