<svg width="31" height="24" viewBox="0 0 31 24" fill="none" xmlns="http://www.w3.org/2000/svg">
<path d="M19.7309 0H31V7.93421C31 11.1447 30.7193 13.6711 30.1578 15.5132C29.5696 17.3816 28.5002 19.0526 26.9495 20.5263C25.3989 22 23.4204 23.1579 21.0142 24L18.8085 19.4211C21.0543 18.6842 22.6718 17.6579 23.6611 16.3421C24.6235 15.0263 25.1315 13.2763 25.185 11.0921H19.7309V0ZM0.92238 0H12.1915V7.93421C12.1915 11.1711 11.9107 13.7105 11.3493 15.5526C10.7611 17.3947 9.69168 19.0526 8.14101 20.5263C6.56361 22 4.58517 23.1579 2.20569 24L0 19.4211C2.2458 18.6842 3.8633 17.6579 4.85252 16.3421C5.81501 15.0263 6.32298 13.2763 6.37646 11.0921H0.92238V0Z" fill="#74D58F"/>
</svg>
