<svg width="31" height="24" viewBox="0 0 31 24" fill="none" xmlns="http://www.w3.org/2000/svg">
<path d="M11.2691 24H0V16.0658C0 12.8553 0.280724 10.3289 0.842173 8.48684C1.43036 6.61842 2.49978 4.94737 4.05045 3.47368C5.60112 2 7.57956 0.842105 9.98577 0L12.1915 4.57895C9.94567 5.31579 8.32816 6.34211 7.33894 7.65789C6.37646 8.97368 5.86848 10.7237 5.81501 12.9079H11.2691V24ZM30.0776 24H18.8085V16.0658C18.8085 12.8289 19.0893 10.2895 19.6507 8.44737C20.2389 6.60526 21.3083 4.94737 22.859 3.47368C24.4364 2 26.4148 0.842105 28.7943 0L31 4.57895C28.7542 5.31579 27.1367 6.34211 26.1475 7.65789C25.185 8.97368 24.677 10.7237 24.6235 12.9079H30.0776V24Z" fill="#74D58F"/>
</svg>
